<svg width="233" height="43" viewBox="0 0 233 43" fill="none" xmlns="http://www.w3.org/2000/svg">
<path d="M42.333 30.37H46.92V17.335L47.415 15.091L45.831 17.038L42.894 19.051L41.079 16.576L48.603 10.504H51.012V30.37H55.5V34H42.333V30.37ZM61.3536 18.127C61.3536 17.005 61.5186 15.971 61.8486 15.025C62.2006 14.079 62.6956 13.276 63.3336 12.616C63.9936 11.934 64.7856 11.406 65.7096 11.032C66.6556 10.636 67.7336 10.438 68.9436 10.438C71.4296 10.438 73.3766 11.186 74.7846 12.682C76.2146 14.156 76.9296 16.312 76.9296 19.15C76.9296 21.702 76.5996 23.913 75.9396 25.783C75.3016 27.631 74.4326 29.182 73.3326 30.436C72.2546 31.668 71.0006 32.614 69.5706 33.274C68.1406 33.934 66.6336 34.33 65.0496 34.462L64.1256 31.096C65.3356 30.942 66.4136 30.645 67.3596 30.205C68.3056 29.765 69.1196 29.226 69.8016 28.588C70.4836 27.928 71.0336 27.191 71.4516 26.377C71.8916 25.541 72.1996 24.65 72.3756 23.704C71.8476 24.276 71.2756 24.672 70.6596 24.892C70.0656 25.112 69.2626 25.222 68.2506 25.222C67.4146 25.222 66.5786 25.079 65.7426 24.793C64.9286 24.507 64.1916 24.078 63.5316 23.506C62.8936 22.912 62.3656 22.175 61.9476 21.295C61.5516 20.393 61.3536 19.337 61.3536 18.127ZM65.5116 17.896C65.5116 19.15 65.8636 20.096 66.5676 20.734C67.2716 21.372 68.1516 21.691 69.2076 21.691C70.1096 21.691 70.8466 21.548 71.4186 21.262C71.9906 20.976 72.4306 20.624 72.7386 20.206C72.8046 19.744 72.8376 19.304 72.8376 18.886C72.8376 18.27 72.7606 17.665 72.6066 17.071C72.4526 16.477 72.2106 15.949 71.8806 15.487C71.5726 15.025 71.1656 14.662 70.6596 14.398C70.1756 14.112 69.5926 13.969 68.9106 13.969C67.8326 13.969 66.9966 14.321 66.4026 15.025C65.8086 15.707 65.5116 16.664 65.5116 17.896ZM100.636 22.021L101.131 17.434H100.933L99.5143 21.13L94.5973 29.743H93.1453L87.9643 21.097L86.5123 17.434H86.3473L87.0073 21.988V34H82.7173V10.9H86.8423L93.0133 21.46L94.1023 24.1H94.2343L95.2243 21.394L101.065 10.9H105.157V34H100.636V22.021ZM110.53 22.45C110.53 18.6 111.377 15.641 113.071 13.573C114.765 11.483 117.185 10.438 120.331 10.438C121.981 10.438 123.422 10.724 124.654 11.296C125.886 11.868 126.909 12.682 127.723 13.738C128.537 14.794 129.142 16.059 129.538 17.533C129.934 19.007 130.132 20.646 130.132 22.45C130.132 26.3 129.274 29.27 127.558 31.36C125.864 33.428 123.455 34.462 120.331 34.462C118.659 34.462 117.207 34.176 115.975 33.604C114.743 33.032 113.72 32.218 112.906 31.162C112.114 30.106 111.52 28.841 111.124 27.367C110.728 25.893 110.53 24.254 110.53 22.45ZM115.282 22.45C115.282 23.616 115.381 24.694 115.579 25.684C115.777 26.652 116.074 27.488 116.47 28.192C116.888 28.896 117.416 29.446 118.054 29.842C118.692 30.238 119.451 30.436 120.331 30.436C121.937 30.436 123.18 29.809 124.06 28.555C124.94 27.301 125.38 25.266 125.38 22.45C125.38 21.328 125.281 20.283 125.083 19.315C124.907 18.347 124.621 17.5 124.225 16.774C123.829 16.048 123.312 15.487 122.674 15.091C122.036 14.673 121.255 14.464 120.331 14.464C118.725 14.464 117.482 15.113 116.602 16.411C115.722 17.687 115.282 19.7 115.282 22.45ZM141.25 21.955L139.435 18.325H139.27L139.798 21.955V34H135.508V10.735H138.808L147.553 23.044L149.302 26.575H149.467L148.939 23.044V10.9H153.229V34.165H149.929L141.25 21.955ZM159.804 10.9H164.325V34H159.804V10.9ZM187.298 14.926H180.566V34H176.045V14.926H169.28V10.9H187.298V14.926ZM189.783 22.45C189.783 18.6 190.63 15.641 192.324 13.573C194.018 11.483 196.438 10.438 199.584 10.438C201.234 10.438 202.675 10.724 203.907 11.296C205.139 11.868 206.162 12.682 206.976 13.738C207.79 14.794 208.395 16.059 208.791 17.533C209.187 19.007 209.385 20.646 209.385 22.45C209.385 26.3 208.527 29.27 206.811 31.36C205.117 33.428 202.708 34.462 199.584 34.462C197.912 34.462 196.46 34.176 195.228 33.604C193.996 33.032 192.973 32.218 192.159 31.162C191.367 30.106 190.773 28.841 190.377 27.367C189.981 25.893 189.783 24.254 189.783 22.45ZM194.535 22.45C194.535 23.616 194.634 24.694 194.832 25.684C195.03 26.652 195.327 27.488 195.723 28.192C196.141 28.896 196.669 29.446 197.307 29.842C197.945 30.238 198.704 30.436 199.584 30.436C201.19 30.436 202.433 29.809 203.313 28.555C204.193 27.301 204.633 25.266 204.633 22.45C204.633 21.328 204.534 20.283 204.336 19.315C204.16 18.347 203.874 17.5 203.478 16.774C203.082 16.048 202.565 15.487 201.927 15.091C201.289 14.673 200.508 14.464 199.584 14.464C197.978 14.464 196.735 15.113 195.855 16.411C194.975 17.687 194.535 19.7 194.535 22.45ZM214.761 11.131C215.267 11.043 215.806 10.966 216.378 10.9C216.972 10.812 217.555 10.746 218.127 10.702C218.721 10.658 219.293 10.625 219.843 10.603C220.393 10.581 220.899 10.57 221.361 10.57C222.439 10.57 223.495 10.669 224.529 10.867C225.585 11.065 226.52 11.406 227.334 11.89C228.17 12.374 228.83 13.045 229.314 13.903C229.82 14.739 230.073 15.795 230.073 17.071C230.073 18.963 229.633 20.503 228.753 21.691C227.873 22.879 226.696 23.704 225.222 24.166L226.839 25.189L232.119 34H226.905L221.658 24.958L219.282 24.529V34H214.761V11.131ZM221.691 14.596C221.229 14.596 220.767 14.607 220.305 14.629C219.865 14.651 219.524 14.695 219.282 14.761V21.46H221.196C222.45 21.46 223.451 21.174 224.199 20.602C224.947 20.03 225.321 19.084 225.321 17.764C225.321 16.774 225.013 16.004 224.397 15.454C223.781 14.882 222.879 14.596 221.691 14.596Z" fill="black"/>
<path d="M26.1333 14.4667C27.1643 14.4667 28 15.3024 28 16.3333V25.6667C28 26.6976 27.1643 27.5333 26.1333 27.5333L1.86667 27.5333C0.835735 27.5333 -4.50634e-08 26.6976 0 25.6667L4.07973e-07 16.3333C4.53037e-07 15.3024 0.835736 14.4667 1.86667 14.4667L26.1333 14.4667Z" fill="#FF4A4A"/>
<path d="M7.46667 8.86667C7.46667 7.83574 8.3024 7 9.33333 7H18.6667C19.6976 7 20.5333 7.83574 20.5333 8.86667V33.1333C20.5333 34.1643 19.6976 35 18.6667 35H9.33333C8.3024 35 7.46667 34.1643 7.46667 33.1333V8.86667Z" fill="#FF4A4A"/>
</svg>
